<svg xmlns="http://www.w3.org/2000/svg" viewBox="0 0 160 160" role="img" aria-labelledby="title">
  <title id="title">Plugin Puzzle Cloud</title>
  <rect x="18" y="18" width="124" height="124" rx="30" fill="#e8f3fc"/>
  <path fill="#0078d4" d="M78 39h20v18c0 6 5 10 11 10s11-4 11-10-5-11-11-11h-2V39h14c6 0 10 4 10 10v25H96c-6 0-10 5-10 11s4 11 10 11h25v15c0 6-4 10-10 10H86V96c0-6-5-10-11-10s-11 4-11 10v25H49c-6 0-10-4-10-10V96h18c6 0 10-5 10-11s-4-11-10-11H39V49c0-6 4-10 10-10h29Z"/>
  <path fill="#fff" d="M68 82c0-8 6-14 14-14 5 0 9 2 12 6 2-1 5-2 8-2 8 0 14 6 14 14 0 2 0 3-1 5H70c-1-3-2-6-2-9Z"/>
</svg>
